# xmcd
#
# Track frame offsets: 
#        150
#        12541
#        28313
#        46122
#        60069
#        69071
#
# Disc length: 1101 seconds
#
# Revision: 0
# Processed by: cddbd v1.5.2PL0 Copyright (c) Steve Scherf et al.
# Submitted via: ExactAudioCopy v0.99pb4
#
DISCID=3f044b06
DTITLE=Horse Shoes - The Imperial School EP
DYEAR=2009
DGENRE=Indie
TTITLE0=Changing Winds
TTITLE1=Hey Come Back!
TTITLE2=Midnight Running Club
TTITLE3=I Can't Decide
TTITLE4=Dying in the Countryside
TTITLE5=Keep Believing
EXTD=
EXTT0=
EXTT1=
EXTT2=
EXTT3=
EXTT4=
EXTT5=
PLAYORDER=
